<?xml version="1.0" encoding="utf-8" ?>
<svg xmlns="http://www.w3.org/2000/svg" xmlns:xlink="http://www.w3.org/1999/xlink" width="1074" height="604">
	<path fill="white" transform="scale(0.59011 0.589844)" d="M0 0L849.018 0L1581.25 0L1596.2 0L1808.24 0L1818.44 0C1819.64 2.71123 1820.18 3.6829 1819.05 6.56287C1818.98 6.73261 1818.89 6.89446 1818.82 7.06026C1819.66 9.02381 1819.9 10.6255 1819.95 12.7309C1821.12 59.758 1820.02 107.041 1820.03 154.103L1820.01 433.791C1820.01 455.575 1821.62 633.902 1819.39 640.031C1819.15 640.677 1818.83 641.254 1818.47 641.835C1819.5 643.473 1819.8 644.744 1819.9 646.652C1821.42 675.726 1820.02 705.661 1820.02 734.811L1820.03 911.314L1820.01 991.183C1820.01 999.244 1821.48 1014.4 1819.62 1021.49C1819.38 1022.39 1818.93 1023.22 1818.44 1024L1495.88 1024L410.624 1024L390.531 1024L171.423 1024L154.687 1024L86.1719 1024L0 1024L0 1022.12L0 0Z"/>
	<path fill="#8F744F" transform="scale(0.59011 0.589844)" d="M828.216 728.41C867.803 726.43 913.706 737.223 948.069 757.123C953.699 760.384 970.39 769.756 972.068 776.095C970.547 778.137 970.594 778.069 968.072 778.457C945.726 754.95 905.362 741.996 874.304 736.84C865.546 735.386 856.549 734.267 847.681 733.838C840.588 733.494 832.915 733.842 825.941 732.623C824.649 732.397 823.895 731.967 822.889 731.133L823.197 729.872C824.51 728.792 826.566 728.691 828.216 728.41Z"/>
	<path fill="#8F744F" transform="scale(0.59011 0.589844)" d="M1159.96 814.663C1189.88 812.508 1219.41 816.385 1248.32 824.224C1277.29 832.078 1306.37 842.914 1332 858.581C1336.68 861.437 1343.27 864.801 1346.07 869.683L1345.66 871.212C1340.11 872.348 1333.85 865.599 1328.65 863.555C1326.22 860.311 1319.02 857.066 1315.34 855.103C1280.56 836.565 1228.17 821.455 1188.87 818.834Q1176.27 818.054 1163.71 819.233C1158.52 819.75 1143.93 823.529 1139.7 821.562L1139.26 820.082C1142.64 815.807 1154.81 815.428 1159.96 814.663Z"/>
	<path fill="#8F744F" transform="scale(0.59011 0.589844)" d="M832.884 707.947Q841.311 707.619 849.74 707.875Q858.17 708.131 866.561 708.97Q874.953 709.81 883.266 711.228Q891.579 712.647 899.774 714.638C938.631 723.888 995.01 749.515 1016.46 785.232C1018.08 787.935 1020.21 791.583 1019.44 794.799L1017.73 795.37C1012.58 791.744 1005.77 779.121 1000.43 773.48C962.11 733.908 899.782 714.319 845.92 712.566C839.784 712.367 795.55 715.814 793.703 714.602C793.876 714.315 794.088 713.912 794.338 713.659C800.148 707.785 824.139 708.286 832.884 707.947Z"/>
	<path fill="#8F744F" transform="scale(0.59011 0.589844)" d="M1190.31 792.444C1205.17 791.68 1220.83 792.998 1235.51 795.304C1274.33 801.401 1317.4 816.801 1348.9 840.685C1352.63 843.517 1358.36 847.303 1360.82 851.287C1361.99 853.19 1361.77 853.934 1361.35 855.978C1359.42 856.143 1358.83 855.927 1357.19 854.821C1353.2 852.133 1349.82 848.247 1346.09 845.203C1335.68 836.702 1321.95 828.72 1309.28 824.298C1308.76 823.813 1308.75 823.765 1308.04 823.315C1299.2 817.657 1286.08 814.203 1276.08 810.806C1238.74 798.111 1197 792.877 1158.06 800.682C1147.1 802.879 1137.01 806.762 1126.25 809.432C1124.32 809.912 1122.18 810.553 1120.45 809.489L1120.72 807.858C1130.44 797.854 1175.91 793.189 1190.31 792.444Z"/>
	<path fill="#8F744F" transform="scale(0.59011 0.589844)" d="M1209 764.883Q1212.12 764.617 1215.26 764.516C1273.85 762.602 1329.36 785.941 1371.75 825.86C1375 828.917 1383.87 836.612 1384 840.959L1381.82 842.624C1377.86 841.612 1346.13 806.694 1328.76 800.049C1323.92 794.288 1294.92 783.273 1287.08 780.652C1248.86 767.882 1205.78 764.226 1167.55 778.814C1157.59 782.615 1148.97 787.98 1139.54 792.683C1138.1 792.27 1137.31 792.275 1136.35 791.1L1136.89 789.228C1140.79 785.141 1146.7 782.612 1151.77 780.263C1170.93 771.396 1187.91 767.345 1209 764.883Z"/>
	<path fill="#8F744F" transform="scale(0.59011 0.589844)" d="M829.891 678.591C881.36 672.899 943.031 690.503 984.766 720.634C1001.22 732.515 1039.19 767.448 1042.1 787.946C1042.22 788.774 1041.83 788.924 1041.35 789.559C1041.15 789.549 1040.94 789.568 1040.74 789.527C1039.53 789.283 1038.35 788.505 1037.54 787.584C1034.87 784.54 1032.95 779.619 1030.86 776.08C1027.81 770.918 1024.41 766.174 1020.77 761.417C1008.43 745.82 993.258 732.419 976.81 721.32C931.385 690.668 874.164 678.614 819.997 684.514C810.895 685.506 802.446 688.339 793.495 689.838C791.29 690.208 789.325 690.62 787.442 689.346C787.65 688.748 787.809 688.264 788.245 687.787C794.065 681.416 820.836 679.357 829.891 678.591Z"/>
	<path fill="#8F744F" transform="scale(0.59011 0.589844)" d="M467.225 870.713C483.512 856.868 499.653 842.954 514.922 827.972C529.284 813.88 550.948 787.797 566.728 778.103C575.169 772.918 584.706 769.305 593.765 765.347C609.963 758.27 626.299 751.445 642.419 744.197C658.325 737.045 674.052 729.32 689.913 722.033C695.691 719.378 701.394 716.161 707.369 714.008C710.651 712.826 713.935 712.209 717.385 713.126C722.09 714.378 726.047 717.886 728.384 722.09C730.495 725.888 731.396 730.619 729.984 734.818C725.778 747.317 681.656 768.056 668.65 775.033C675.157 780.737 681.353 786.688 686.974 793.279C695.02 802.712 707.146 818.183 705.879 831.231C704.293 847.566 688.942 841.554 685.508 845.103C681.826 848.908 681.235 856.395 677.155 859.26C672.371 862.619 663.785 860.932 658.382 859.859C656.038 862.484 653.148 864.984 649.648 865.825C643.823 867.225 639.057 863.441 634.534 860.405C604.811 881.904 576.532 910.709 541.305 922.596C527.796 927.154 513.695 929.428 499.702 931.939C501.679 940.784 502.346 949.16 502.528 958.201C496.171 961.822 490 965.462 484.084 969.775C516.749 971.611 550.158 970.435 582.904 970.467L755.648 970.51L1228.16 970.668L1227.24 971.947C1194.07 973.621 1158.19 972.066 1124.76 972.053C1112.37 972.048 1098.7 970.987 1086.44 972.51L675.207 972.939L550.552 972.785C530.171 972.803 508.62 971.345 488.431 973.583C488.315 973.859 488.202 974.136 488.081 974.411C487.802 975.047 487.498 975.737 487.186 976.35C486.097 978.487 418.265 1019.28 410.771 1023.18C404.437 1023.21 398.144 1023.24 391.822 1022.78Q434.625 996.666 477.729 971.057C468.776 934.1 454 901.289 427.251 873.669L242.419 981.432C218.74 995.342 194.468 1008.65 171.25 1023.3L154.633 1023.13L152.923 1022.73C155.243 1019.43 162.758 1016.08 166.283 1013.84L428.427 861.386C430.741 861.607 431.207 862.385 432.943 863.863C436.476 864.505 446.733 857.82 450.226 855.962C456.625 860.187 461.964 865.175 467.225 870.713Z"/>
	<path fill="white" transform="scale(0.59011 0.589844)" d="M596.352 820.344C597.942 822.429 599.409 824.44 600.662 826.758C600.495 829.441 599.986 829.467 597.991 831.348L595.749 831.764C594.546 831.211 594.144 831.398 593.698 830.045C592.726 827.1 595.014 822.903 596.352 820.344Z"/>
	<path fill="white" transform="scale(0.59011 0.589844)" d="M609.699 808.662C611.691 809.535 615.896 813.556 617.066 815.52C618.265 817.533 618.194 818.847 617.637 820.95L613.216 823.321L611.118 823.516C607.757 820.699 606.058 817.794 605.331 813.505C606.095 810.757 607.449 810.329 609.699 808.662Z"/>
	<path fill="white" transform="scale(0.59011 0.589844)" d="M670.996 833.676C671.243 833.89 671.5 834.093 671.737 834.318C673.679 836.158 675.143 840.204 675.083 842.812C675.023 845.42 673.87 847.938 671.784 849.546C669.601 851.229 667.332 850.94 664.799 850.618C662.054 848.689 659.457 846.502 656.829 844.416C661.735 841.088 666.341 837.342 670.996 833.676Z"/>
	<path fill="white" transform="scale(0.59011 0.589844)" d="M627.98 797.07C633.257 800.878 637.482 805.934 641.793 810.757L631.187 815.29L630.543 815.573C627.341 815.024 621.366 805.999 618.917 803.007L627.98 797.07Z"/>
	<path fill="white" transform="scale(0.59011 0.589844)" d="M448.506 867.546C453.387 870.681 458.028 876.302 461.785 880.706C476.133 897.526 494.215 930.009 492.427 952.599C491.053 955.468 487.936 956.901 485.325 958.548C477.517 926.527 460.674 896.439 439.388 871.535L448.506 867.546Z"/>
	<path fill="white" transform="scale(0.59011 0.589844)" d="M658.096 780.374C658.262 780.402 658.432 780.409 658.594 780.457C665.703 782.565 683.606 804.171 687.954 810.832C691.491 816.251 697.808 825.825 696.432 832.348C695.232 833.726 694.682 834.58 692.666 834.639C688.174 834.77 684.961 832.917 682.002 829.73C676.581 823.274 673.377 812.523 666.538 808.03C661.778 804.903 657.005 805.741 651.739 806.851Q644.825 798.983 637.784 791.228C644.405 787.364 651.303 783.927 658.096 780.374Z"/>
	<path fill="white" transform="scale(0.59011 0.589844)" d="M710.911 723.429C712.351 723.225 713.682 723.132 715.099 723.548C716.944 724.09 718.912 725.426 719.75 727.196C722.203 732.379 716.86 735.794 713.192 738.371C686.058 757.438 595.096 793.52 585.204 820.952Q584.952 821.662 584.735 822.385Q584.519 823.107 584.338 823.839Q584.158 824.571 584.014 825.311Q583.87 826.051 583.763 826.797Q583.656 827.544 583.586 828.294Q583.516 829.045 583.484 829.798Q583.451 830.552 583.456 831.306Q583.461 832.059 583.504 832.812Q583.546 833.565 583.626 834.315Q583.706 835.064 583.823 835.809Q583.94 836.554 584.093 837.292Q584.247 838.03 584.437 838.76Q584.627 839.489 584.854 840.209Q585.08 840.928 585.341 841.635Q585.603 842.342 585.899 843.035Q586.196 843.728 586.526 844.406C588.832 845.687 590.153 845.792 592.76 845.041C598.433 843.406 604.312 838.854 609.489 835.971C621.153 829.475 643.039 818.42 656.06 816.928C659.25 816.563 661.588 817.329 664.077 819.336C664.595 820.518 665.204 821.376 665.019 822.69C664.656 825.271 663.016 826.942 661.143 828.585C649.75 838.579 636.11 846.929 623.906 855.999C605.736 869.502 588.208 883.799 569.91 897.147C546.995 912.898 524.011 917.21 497.141 922.372C489.76 901.719 484.044 896.583 474.157 878.78L473.814 878.157Q505.419 851.773 534.576 822.705C546.121 811.323 556.945 797.152 570.103 787.785C581.34 779.784 607.747 770.313 621.606 764.203Q666.517 744.383 710.911 723.429Z"/>
	<path fill="#8F744F" transform="scale(0.59011 0.589844)" d="M1808.24 0L1818.44 0C1819.64 2.71123 1820.18 3.6829 1819.05 6.56287C1818.98 6.73261 1818.89 6.89446 1818.82 7.06026C1815.55 11.8973 1809.94 16.1375 1805.85 20.4571Q1791.49 35.7736 1777.51 51.4446L1659.63 182.769C1652.39 190.819 1613.06 236.439 1607.06 239.161C1595.17 236.075 1583.82 231.027 1572.06 227.895C1571.33 231.019 1568.17 234.249 1565.54 235.97C1562.83 237.736 1558.84 238.179 1556.4 240.218C1550.78 244.894 1545.78 253.416 1541.46 259.359C1528.25 277.53 1515.2 298.311 1498.75 313.711C1478.22 332.917 1449.84 342.779 1426.96 358.767C1418.95 364.364 1403.47 382.462 1393.31 379.714C1389.41 378.661 1386.05 376.379 1384.11 372.79C1378.43 362.316 1385.26 352.191 1383.6 342.427C1383.56 342.753 1383.52 343.081 1383.46 343.405C1382.37 349.434 1354.3 390.145 1348.65 396.423C1344.64 400.889 1339.76 404.852 1334.67 408.041C1323.76 414.885 1309.12 419.132 1296.27 416.029C1293.65 415.396 1290.99 414.254 1289.67 411.737C1288.63 409.743 1288.55 407.093 1289.26 404.984C1291.68 397.707 1297.89 389.635 1301.92 383.018L1335.73 327.968C1341.31 318.756 1348.07 309.27 1351.96 299.249C1354.56 292.543 1354.32 284.368 1354.67 277.238C1355.61 257.945 1355.65 234.133 1364.71 216.663C1370.8 204.938 1383.47 200.293 1394.92 195.239C1403.41 191.497 1463.5 167.021 1466.25 163.904C1466.22 163.761 1466.2 163.617 1466.16 163.475C1465.08 158.654 1460.55 156.89 1463.91 151.4C1466.57 147.046 1473.76 142.992 1475 138.164C1474.67 133.926 1471.12 129.442 1468.2 126.523C1471.85 123.871 1483.79 113.37 1484.78 109.265C1484.82 109.099 1484.81 108.926 1484.83 108.756C1486.11 108.179 1487.12 107.446 1488.09 106.431C1495.7 98.4711 1502.66 89.7529 1510.01 81.5294L1554.95 31.6884C1561.65 24.2126 1578.02 8.85819 1582.12 1.08044C1586.3 1.03035 1590.52 0.839724 1594.69 0.995404C1594.67 1.3162 1594.65 1.82012 1594.54 2.15258C1593.45 5.59233 1489.14 123.619 1481.27 128.733C1488.67 135.501 1494.12 148.808 1500.71 157.117C1527.86 191.349 1561.81 213.39 1602.82 227.423C1603.04 227.311 1603.26 227.206 1603.47 227.088C1609.52 223.758 1807.29 3.61047 1808.24 0Z"/>
	<path fill="white" transform="scale(0.59011 0.589844)" d="M1426.32 292.888C1431.17 292.111 1436.38 292.59 1441.28 292.699C1441.26 292.835 1441.27 292.975 1441.24 293.109C1440.62 295.963 1437.8 297.296 1435.48 298.552C1433.43 301.649 1429.45 303.041 1426.18 304.412C1428.08 301.032 1427.13 296.474 1426.32 292.888Z"/>
	<path fill="white" transform="scale(0.59011 0.589844)" d="M1414.22 295.553C1415.06 295.73 1415.42 296.059 1416.1 296.562C1416.34 301.137 1417.95 307.323 1417.6 311.552C1409.28 317.742 1401.31 324.757 1392.81 330.602L1392.43 331.559C1391.63 326.26 1411.18 302.831 1414.22 295.553Z"/>
	<path fill="white" transform="scale(0.59011 0.589844)" d="M1479.18 149.775C1485.43 150.511 1493 165.209 1497.17 170.417C1516.53 194.613 1537.02 206.2 1561.98 222.868C1561.76 223.508 1561.67 223.877 1561.39 224.448C1560.14 226.936 1557.74 227.877 1555.26 228.692C1530.14 215.434 1508.58 202.457 1490.43 179.829C1484.57 172.528 1480.12 163.371 1473.59 156.75C1473.44 156.594 1473.28 156.443 1473.12 156.29C1475.65 154.672 1477.63 152.301 1479.18 149.775Z"/>
	<path fill="white" transform="scale(0.59011 0.589844)" d="M1467.88 174.665L1471.13 174.201C1476.58 177.155 1493.91 200.633 1501.37 207.073C1509.84 214.383 1519.26 220.978 1528.74 226.905C1533.47 229.866 1540.77 232.441 1544.6 236.286C1544.5 237.009 1544.53 237.006 1544.21 237.804C1541.68 243.977 1531.6 254.829 1527.12 261.282C1517.16 275.627 1506.79 291.087 1494.29 303.323C1473.81 323.363 1445.67 334.758 1421.7 350.056C1413.42 355.346 1406.19 364.48 1397.44 368.643C1395.81 369.423 1395.76 369.401 1394.07 368.779C1393.7 368.138 1393.39 367.513 1393.12 366.824C1392.07 364.133 1392.33 360.401 1392.49 357.579C1394.31 326.486 1445.84 314.501 1455.35 292.129C1456.4 289.664 1456.11 288.271 1455.16 285.927C1451.63 282.635 1446.03 282.838 1441.5 282.571C1431.03 281.953 1412.73 279.668 1405.85 289.576C1402.13 294.937 1399.39 300.96 1395.59 306.352C1393.14 309.814 1390.73 313.753 1387.5 316.522C1387.36 316.649 1387.2 316.768 1387.05 316.891C1387.04 317.609 1387.06 318.103 1386.79 318.781C1383.89 325.978 1377.38 334.052 1373.2 340.802C1360.98 360.526 1343.19 396.054 1320.08 404.384C1315.15 406.161 1305.82 408.332 1300.99 406.055C1301.03 402.921 1363.58 300.971 1370.8 288.376C1375.84 279.584 1383.06 269.516 1385.85 259.835C1386.66 257.022 1386.66 255.163 1385.29 252.6L1383.1 252.05C1375.73 253.601 1374.01 264.318 1367.78 268.005C1367.59 268.116 1367.4 268.211 1367.2 268.314C1370.08 264.026 1380.53 238.681 1379.94 234.076C1379 232.989 1378.83 232.431 1377.35 232.23C1373.31 231.684 1371.64 235.298 1368.78 237.517L1368.34 237.856C1371.07 231.349 1371.82 223.523 1376.47 217.962C1384.12 208.789 1434.69 189.127 1449.18 183C1455.23 180.443 1462.4 178.178 1467.88 174.665Z"/>
	<path fill="white" transform="scale(0.59011 0.589844)" d="M1086.44 972.51C1102.4 974.155 1119.12 973.264 1135.18 973.266L1219.05 973.237L1492.28 973.393C1494.71 977.211 1497.74 1016.25 1496.84 1021.54C1496.7 1022.39 1496.28 1023.25 1495.88 1024L410.624 1024L410.771 1023.18C418.265 1019.28 486.097 978.487 487.186 976.35C487.498 975.737 487.802 975.047 488.081 974.411C488.202 974.136 488.315 973.859 488.431 973.583C508.62 971.345 530.171 972.803 550.552 972.785L675.207 972.939L1086.44 972.51Z"/>
	<path fill="#C9A977" transform="scale(0.59011 0.589844)" d="M1818.47 641.835C1819.5 643.473 1819.8 644.744 1819.9 646.652C1821.42 675.726 1820.02 705.661 1820.02 734.811L1820.03 911.314L1820.01 991.183C1820.01 999.244 1821.48 1014.4 1819.62 1021.49C1819.38 1022.39 1818.93 1023.22 1818.44 1024L1495.88 1024C1496.28 1023.25 1496.7 1022.39 1496.84 1021.54C1497.74 1016.25 1494.71 977.211 1492.28 973.393L1219.05 973.237L1135.18 973.266C1119.12 973.264 1102.4 974.155 1086.44 972.51C1098.7 970.987 1112.37 972.048 1124.76 972.053C1158.19 972.066 1194.07 973.621 1227.24 971.947L1228.16 970.668C1237.43 969.505 1247.54 970.235 1256.9 970.26L1308.37 970.348Q1400.37 969.779 1492.37 970.428C1494.91 966.366 1495.54 934.198 1496.4 926.571C1503.56 863.047 1531.53 797.932 1574.58 750.492C1622.13 698.088 1689.65 660.973 1759.11 647.77C1778.9 644.009 1798.41 642.783 1818.47 641.835Z"/>
	<path fill="#8F744F" transform="scale(0.59011 0.589844)" d="M1002.94 334.6C1073.41 331.619 1145.2 356.975 1201.8 398.585C1210.24 404.796 1249.2 436.333 1250.7 446.226C1266.87 441.768 1282.39 432.365 1298.37 426.733Q1307.44 423.507 1316.63 420.652Q1325.82 417.798 1335.12 415.319Q1344.41 412.84 1353.81 410.741Q1363.2 408.642 1372.67 406.926Q1382.14 405.211 1391.67 403.881Q1401.2 402.552 1410.78 401.611Q1420.35 400.671 1429.96 400.12Q1439.57 399.569 1449.19 399.409C1490.24 398.897 1529.16 404.468 1568.69 415.338C1573.6 416.691 1584.64 418.611 1587.97 422.323C1588.43 422.844 1588.71 423.255 1588.65 423.965C1588.12 430.214 1580.25 448.059 1575.53 452.23C1579.32 457.895 1578.41 465.634 1582.52 471.205C1591.98 484.043 1613.11 479.61 1625.19 487.988C1629.65 491.079 1631.01 494.97 1631.94 500.122C1628.08 514.372 1619.94 528.151 1613.29 541.329L1579.99 606.614Q1524.05 718.162 1466.45 828.858C1448.44 863.629 1431.64 899.401 1412.4 933.48C1411.45 935.161 1410.51 936.253 1408.94 937.404C1402.79 935.267 1395.92 934.067 1389.59 932.488Q1370.05 927.68 1350.58 922.584L1200.4 883.606L896.028 805.606C869.91 798.934 843.891 791.296 817.766 784.831C803.773 781.369 744.466 768.679 736.043 762.401C733.05 760.17 731.269 757.128 730.732 753.447C730.109 749.181 730.96 744.802 732.505 740.819C736.387 730.808 756.238 699.225 763.406 690.072C764.992 688.047 766.509 686.905 769.108 686.603C771.537 687.294 772.018 687.327 773.623 689.228C774.596 696.134 749.499 730.891 744.771 739.682C742.808 743.331 740.381 748.485 741.657 752.682C743.471 754.918 745.718 755.974 748.404 756.808C771.452 763.957 795.289 768.904 818.634 775.017Q896.016 795.69 973.702 815.181L1404.28 926.004C1409.58 921.64 1606.12 537.811 1620.68 503.611C1621.12 502.566 1622.86 499.307 1622.37 498.455C1619.21 493.056 1593.31 489.261 1586.65 487.762C1593.89 491.771 1603.13 498.84 1608.58 504.951C1603.87 516.033 1597.63 526.632 1592.29 537.44Q1572.4 578.015 1551.73 618.197L1507.36 706.186C1498.26 724.334 1489.5 742.896 1479.65 760.642C1478.88 762.027 1478.02 762.989 1476.81 764.007C1476.82 764.319 1476.86 764.631 1476.85 764.943C1476.8 767.527 1409.36 898.169 1402.87 909.643C1401.8 911.532 1400.77 912.854 1399.05 914.191C1394.37 910.182 1330.53 896.283 1319.47 893.4L891.476 782.827L801.318 759.685C788.723 756.546 775.872 754.107 763.355 750.718C760.582 749.968 757.765 749.011 755.6 747.058C754.652 745.247 754.293 744.218 754.623 742.163C754.759 741.317 755.788 740.863 756.464 740.361C760.032 739.62 763.245 739.93 766.792 740.694C792.756 746.288 818.675 753.997 844.461 760.54Q935.084 783.316 1025.42 807.204L1395.12 901.972C1402.62 894.32 1594.98 511.199 1595.36 508.296C1594.52 505.653 1583.95 497.415 1581.22 494.163C1575.34 487.144 1574.12 474.609 1567.52 468.771C1567.52 468.947 1567.52 469.124 1567.51 469.3C1567.06 476.064 1505.67 599.338 1497.31 616.785Q1469.1 675.687 1441.6 734.922C1435.96 747.135 1402.95 823.013 1398.37 827.291C1398.37 826.796 1398.4 826.727 1398.24 826.175C1397.21 822.639 1393.14 818.257 1390.94 815.319C1376.5 796.068 1359.25 780.566 1338.06 769.035C1269.58 731.767 1186.48 744.608 1120.46 780.918C1110.6 786.343 1077.72 809.457 1071.11 811.268C1069.93 811.591 1066.66 810.505 1065.6 809.837C1061.83 807.463 1060.68 797.71 1059.62 793.578C1048.58 750.469 1011.87 711.799 974.427 689.743C923.4 659.69 857.947 652.565 801.062 667.466C794.671 669.14 787.327 670.885 781.302 673.619C776.011 676.019 771.212 679.828 765.556 681.288C763.244 680.555 762.779 680.302 761.125 678.536C760.532 673.485 882.74 452.2 896.933 427.934Q922.022 385.393 949.464 344.331C966.146 338.18 985.293 335.755 1002.94 334.6Z"/>
	<path fill="white" transform="scale(0.59011 0.589844)" d="M1431.07 410.222C1470.25 406.821 1511.75 412.165 1549.97 420.685C1558.14 422.508 1568.19 424.203 1575.46 428.255C1571.22 439.905 1564.32 451.488 1558.89 462.692L1522.29 538.308L1437.28 718.722C1424.51 746.061 1412.9 774.508 1398.89 801.186C1397.96 802.953 1396.88 804.181 1395.34 805.437C1395.34 805.219 1395.35 805.001 1395.34 804.783C1395.1 800.114 1383.46 789.927 1380.16 786.828C1340.57 749.622 1288.47 735.072 1235.03 736.792C1190.13 739.392 1150.37 753.272 1111.07 774.419C1100.89 779.901 1091.28 788.406 1080.68 792.777L1079.98 793.056C1089.71 782.135 1116.19 726.487 1124.57 710.391Q1166.59 629.386 1207.74 547.931C1222.78 518.432 1238.76 489.113 1252.97 459.229C1253.49 458.127 1253.48 457.29 1253.44 456.103C1271.02 449.919 1287.91 441.552 1305.49 435.198C1346.07 420.529 1388.18 413.218 1431.07 410.222Z"/>
	<path fill="white" transform="scale(0.59011 0.589844)" d="M1006.47 344.361C1060.28 342.26 1115.46 359.37 1162.19 385.464Q1172.01 391.061 1181.45 397.262Q1190.9 403.462 1199.94 410.242Q1208.98 417.022 1217.58 424.354Q1226.18 431.687 1234.3 439.543C1237.36 442.509 1243.26 447.304 1244.43 451.422C1244.49 451.991 1244.55 452.637 1244.46 453.204C1243.66 458.668 1213.54 514.28 1208.38 524.372C1165.24 608.692 1123.46 693.896 1078.15 777.073C1075.54 781.859 1072.81 788.344 1068.33 791.604C1068.53 790.602 1068.64 789.612 1068.57 788.589C1068 780.143 1055.2 753.545 1048.92 748.32C1048.87 747.889 1048.84 747.199 1048.7 746.75C1047.52 742.669 1042.77 737.175 1040.15 733.747C1019.83 707.243 991.98 686.004 961.794 671.962C906.842 646.399 836.782 642.391 779.736 663.327C800.912 622.92 823.128 583.111 844.816 542.985C879.906 478.066 914.875 413.448 956.739 352.534C973.103 347.847 989.505 345.48 1006.47 344.361Z"/>
	<path fill="#8F744F" transform="scale(0.59011 0.589844)" d="M972.218 451.028Q974.022 451.305 975.67 452.089C981.683 454.932 991.434 464.427 993.86 470.726C993.625 473.522 992.883 474.453 991.379 476.737C990.462 476.66 989.649 476.534 988.79 476.181C982.435 473.568 972.383 463.738 969.872 457.283C970.001 454.319 970.669 453.457 972.218 451.028Z"/>
	<path fill="#8F744F" transform="scale(0.59011 0.589844)" d="M1137.51 543.551Q1139.45 543.088 1141.44 542.936C1148.17 542.37 1166.99 542.981 1172.28 547.765C1173.25 548.641 1173.1 548.882 1173.18 550.168C1172.09 552.218 1171.09 553.068 1169.09 554.226C1168.08 554.601 1167.32 554.833 1166.22 554.812C1158.99 554.671 1143.15 555.108 1137.75 549.601C1136.77 547.006 1137.01 546.185 1137.51 543.551Z"/>
	<path fill="#8F744F" transform="scale(0.59011 0.589844)" d="M1073.42 421.763C1076.36 421.1 1077.99 420.849 1080.59 422.367C1081.92 424.469 1082.02 426.392 1081.85 428.791C1081.36 435.781 1078.04 451.044 1072.83 455.552C1071.99 455.899 1071.44 456.037 1070.53 455.915C1068.4 455.629 1068.34 455.461 1067.08 453.855C1065.1 445.399 1070.75 430.059 1073.42 421.763Z"/>
	<path fill="#8F744F" transform="scale(0.59011 0.589844)" d="M1127.34 446.658C1128.42 446.461 1129.65 446.174 1130.75 446.236C1132.97 446.363 1133.64 447.322 1134.91 448.887C1135.02 450.058 1134.98 451.17 1134.49 452.266C1132.02 457.869 1117.84 471.952 1112.03 474.233C1109.85 474.338 1108.27 473.617 1106.63 472.246L1106.47 469.719C1109.45 461.281 1120.94 452.781 1127.34 446.658Z"/>
	<path fill="#8F744F" transform="scale(0.59011 0.589844)" d="M1158.58 492.884C1159.37 492.747 1160.17 492.606 1160.96 492.514C1163.94 492.171 1164.82 492.98 1167.09 494.695C1167.95 496.835 1168.03 496.785 1167.17 498.91C1160.71 505.151 1147.23 508.576 1138.59 510.649C1138.49 510.688 1138.39 510.747 1138.28 510.766C1135.93 511.178 1135.35 510.642 1133.5 509.359C1132.44 507.107 1132.18 506.626 1132.44 504.187C1137.54 497.443 1150.76 497.056 1158.1 493.151C1158.27 493.065 1158.42 492.973 1158.58 492.884Z"/>
	<path fill="#8F744F" transform="scale(0.59011 0.589844)" d="M1017.19 419.186C1020.08 419.34 1022.25 418.826 1024.27 421.272C1028.08 425.888 1033.9 444.91 1033.23 450.792C1032.98 452.935 1031.8 453.259 1030.16 454.43L1027.84 454.855C1025.69 453.962 1024.81 453.446 1023.76 451.226C1020.04 443.375 1014.06 427.31 1017.19 419.186Z"/>
	<path fill="#8F744F" transform="scale(0.59011 0.589844)" d="M1045.06 464.439C1060.22 463.389 1074.81 466.482 1087.81 474.481C1105.19 485.17 1118.23 502.141 1122.87 522.121Q1123.29 523.96 1123.61 525.816Q1123.94 527.673 1124.18 529.543Q1124.42 531.414 1124.56 533.294Q1124.71 535.173 1124.76 537.058Q1124.82 538.942 1124.78 540.827Q1124.74 542.712 1124.61 544.593Q1124.48 546.474 1124.26 548.347Q1124.04 550.219 1123.73 552.079Q1123.42 553.938 1123.02 555.78Q1122.62 557.622 1122.13 559.443Q1121.63 561.263 1121.06 563.058Q1120.48 564.852 1119.81 566.616Q1119.15 568.38 1118.4 570.11Q1117.65 571.84 1116.82 573.531Q1115.98 575.222 1115.07 576.871Q1114.15 578.52 1113.16 580.122Q1112.66 580.934 1112.13 581.731Q1111.6 582.529 1111.05 583.312Q1110.51 584.095 1109.94 584.862Q1109.37 585.63 1108.78 586.382Q1108.19 587.134 1107.58 587.87Q1106.97 588.605 1106.34 589.324Q1105.71 590.042 1105.06 590.744Q1104.41 591.445 1103.74 592.128Q1103.08 592.812 1102.39 593.477Q1101.7 594.142 1101 594.788Q1100.29 595.434 1099.57 596.06Q1098.85 596.687 1098.11 597.294Q1097.38 597.9 1096.62 598.487Q1095.87 599.073 1095.1 599.639Q1094.33 600.204 1093.54 600.749Q1092.76 601.293 1091.96 601.816Q1091.16 602.339 1090.34 602.84Q1089.53 603.34 1088.7 603.819Q1087.87 604.297 1087.03 604.753Q1086.2 605.209 1085.34 605.642Q1084.49 606.075 1083.63 606.484Q1082.76 606.893 1081.89 607.279Q1081.02 607.665 1080.13 608.027Q1079.25 608.389 1078.35 608.726Q1077.46 609.064 1076.56 609.377Q1075.65 609.69 1074.74 609.979Q1073.83 610.267 1072.91 610.53Q1072 610.794 1071.07 611.032Q1070.15 611.271 1069.21 611.484Q1068.28 611.697 1067.35 611.885Q1066.41 612.072 1065.47 612.234Q1064.53 612.397 1063.58 612.533C1057.87 613.4 1051.77 612.667 1046.26 613.951C1044.03 619.624 1041.84 626.398 1035.64 628.506C1034.51 628.887 1033.05 629.115 1032.28 630.084C1030.9 631.802 1031.85 636.156 1030.81 638.419C1029.57 641.109 1025.52 642.615 1023.77 645.432C1024.24 648.734 1024.29 651.39 1023.75 654.684C1023.13 655.909 1022.49 657.159 1021.6 658.217C1019.32 660.95 1016.14 662.804 1012.57 663.121C1002.78 663.99 980.976 654.428 973.47 648.057C971.031 645.986 968.679 643.08 968.464 639.769C967.84 630.187 985.306 606.706 984.319 599.551C984.002 597.259 983.366 594.865 983.302 592.554C983.172 587.827 986.763 584.228 989.862 581.16C983.067 570.548 978.553 558.818 977.128 546.271C974.937 526.977 979.744 507.499 991.997 492.274C1005.65 475.315 1023.63 466.68 1045.06 464.439Z"/>
	<path fill="#C9A977" transform="scale(0.59011 0.589844)" d="M993.03 590.576C998.434 591.486 1034.12 608.638 1037.48 611.939C1038 613.205 1038.62 613.949 1038.17 615.302C1036.8 619.455 1028.57 622.321 1024.84 624.22C1023.09 627.518 1024.15 628.614 1023.64 632.017C1023.14 635.28 1018.5 637.561 1015.9 639.297C1014.16 642.919 1016.65 645.745 1016.64 649.506C1016.63 651.596 1015.79 652.533 1014.44 653.889C1005.96 655.14 988.283 646.024 980.613 641.704C978.726 640.642 977.792 640.408 977.189 638.23C978.127 635.944 979.425 635.119 981.391 633.783L982.164 633.263C989.403 635.377 996.152 636.635 1003.64 637.352C998.107 634.127 988.982 631.199 984.527 627.127C984.397 625.242 984.373 624.196 985.923 622.774C986.306 622.423 987.751 621.528 988.277 621.476C991.349 621.172 996.871 623.905 1000.12 624.538C1002.99 625.097 1006.2 624.96 1009.11 624.94C1003.71 620.544 995.183 617.889 991.074 612.485C991.176 610.403 992.168 609.622 993.396 608.042C996.668 608.26 999.165 611.426 1002.32 612.625C1007.27 614.506 1013.3 615.039 1018.53 615.91C1010.81 609.887 998.103 604.726 992.334 597.155C991.452 594.598 992.198 593.007 993.03 590.576Z"/>
	<path fill="white" transform="scale(0.59011 0.589844)" d="M1048.05 474.22C1064.74 474.198 1080.15 479.24 1092.7 490.544Q1093.91 491.634 1095.06 492.781Q1096.21 493.929 1097.31 495.131Q1098.4 496.334 1099.44 497.588Q1100.48 498.843 1101.45 500.146Q1102.42 501.449 1103.33 502.799Q1104.24 504.148 1105.08 505.54Q1105.92 506.932 1106.7 508.364Q1107.47 509.795 1108.17 511.263Q1108.87 512.73 1109.5 514.23Q1110.13 515.73 1110.69 517.259Q1111.24 518.788 1111.73 520.342Q1112.21 521.896 1112.61 523.472Q1113.02 525.047 1113.34 526.641Q1113.67 528.235 1113.92 529.842Q1114.17 531.45 1114.34 533.068Q1114.51 534.686 1114.6 536.31C1115.55 553.644 1109.95 570.569 1098.16 583.432C1085.37 597.381 1069.84 602.242 1051.52 603.133C1050.86 603.12 1050.21 603.092 1049.56 603.043L1048.66 602.972C1037.52 602.185 1011.92 586.89 1000.86 581.317C995.231 567.452 987.918 558.469 986.735 542.652Q986.605 541.09 986.554 539.524Q986.503 537.958 986.53 536.392Q986.556 534.825 986.662 533.262Q986.767 531.698 986.95 530.142Q987.133 528.586 987.394 527.041Q987.654 525.496 987.992 523.965Q988.329 522.435 988.743 520.924Q989.156 519.413 989.645 517.924Q990.133 516.435 990.695 514.973Q991.258 513.51 991.892 512.077Q992.527 510.645 993.232 509.246Q993.938 507.847 994.712 506.485Q995.486 505.122 996.328 503.801Q997.169 502.479 998.076 501.201Q998.982 499.923 999.951 498.692Q1000.92 497.461 1001.95 496.28C1013.97 482.548 1030.04 475.494 1048.05 474.22Z"/>
	<path fill="#8F744F" transform="scale(0.59011 0.589844)" d="M1032.07 513.269C1034.41 513.001 1037.09 512.472 1039.39 513.179C1042.85 514.244 1046.13 517.247 1047.68 520.492C1049.39 524.059 1049.78 529.134 1048.47 532.847C1053.3 531.519 1057.68 528.939 1062.72 528.189C1067.09 527.539 1071.97 528.113 1075.49 530.993Q1075.9 531.323 1076.26 531.692Q1076.63 532.062 1076.96 532.467Q1077.29 532.872 1077.58 533.309Q1077.87 533.746 1078.11 534.209Q1078.35 534.673 1078.54 535.159Q1078.74 535.644 1078.88 536.147Q1079.02 536.65 1079.11 537.165Q1079.2 537.68 1079.24 538.201C1079.53 542.403 1077.73 546.403 1074.87 549.411C1068.45 556.168 1059.09 556.307 1050.44 556.555C1050.61 557.329 1050.75 557.881 1050.65 558.679C1049.76 565.595 1044.97 582.023 1038.97 586.146C1036.98 586.083 1036.78 586.073 1035.45 584.564C1032.71 581.453 1033.7 578.452 1033.84 574.716C1037.42 571.307 1040.4 562.711 1041.97 557.947C1042.97 554.909 1043.22 552.767 1041.77 549.9L1039.49 549.239L1039.34 551.027L1038.96 549.905C1035.1 558.084 1031.31 568.89 1025.3 575.608C1023.26 576.56 1021.99 577.019 1019.73 576.708C1018.63 575.84 1017.85 575.574 1017.59 574.137C1016.25 566.836 1028.26 551.747 1032.32 545.526Q1030.73 544.285 1029.35 542.817Q1027.97 541.35 1026.83 539.69C1024.43 536.197 1020.47 530.336 1021.63 526.016C1023.16 520.34 1027.34 516.364 1032.07 513.269Z"/>
	<path fill="white" transform="scale(0.59011 0.589844)" d="M1034.17 522.133L1036.67 522.67C1039.06 524.582 1040.1 528.375 1040.61 531.32C1041.11 534.186 1040.97 537.138 1039.32 539.532L1036.34 539.014C1034.29 536.402 1031.52 532.835 1031.22 529.435C1030.95 526.467 1032.33 524.289 1034.17 522.133Z"/>
	<path fill="white" transform="scale(0.59011 0.589844)" d="M1062.36 537.317C1064.29 537.071 1067.09 536.766 1068.75 537.901C1069.84 538.645 1069.6 538.942 1069.84 540.153C1069.41 541.068 1068.93 541.881 1068.26 542.644C1064.73 546.628 1060 547.196 1055.03 547.403C1053.56 546.727 1052.19 545.983 1050.8 545.164L1050.74 543.635C1052.88 540.553 1058.91 538.818 1062.36 537.317Z"/>
	<path fill="#C9A977" transform="scale(0.59011 0.589844)" d="M0 0L849.018 0L1581.25 0L1596.2 0L1808.24 0C1807.29 3.61047 1609.52 223.758 1603.47 227.088C1603.26 227.206 1603.04 227.311 1602.82 227.423C1561.81 213.39 1527.86 191.349 1500.71 157.117C1494.12 148.808 1488.67 135.501 1481.27 128.733C1489.14 123.619 1593.45 5.59233 1594.54 2.15258C1594.65 1.82012 1594.67 1.3162 1594.69 0.995404C1590.52 0.839724 1586.3 1.03035 1582.12 1.08044C1578.02 8.85819 1561.65 24.2126 1554.95 31.6884L1510.01 81.5294C1502.66 89.7529 1495.7 98.4711 1488.09 106.431C1487.12 107.446 1486.11 108.179 1484.83 108.756C1406.25 156.727 1310.92 185.935 1220.72 202.075C1190.21 207.535 1159.36 210.926 1128.77 215.946C1068.88 225.775 1008.67 242.684 955.739 273.162Q951.952 275.325 948.208 277.56Q944.464 279.796 940.765 282.104Q937.065 284.412 933.411 286.792Q929.757 289.172 926.149 291.622Q922.542 294.072 918.983 296.592Q915.424 299.112 911.915 301.7Q908.405 304.289 904.947 306.945Q901.488 309.602 898.082 312.325Q894.676 315.048 891.324 317.836Q887.971 320.625 884.673 323.479Q881.376 326.332 878.134 329.249Q874.892 332.166 871.708 335.145Q868.523 338.125 865.398 341.165Q862.272 344.206 859.205 347.307Q856.139 350.408 853.134 353.568Q850.128 356.728 847.185 359.946Q844.242 363.164 841.361 366.438Q838.481 369.713 835.665 373.043Q832.849 376.372 830.098 379.756Q827.347 383.14 824.662 386.577Q821.977 390.014 819.36 393.502Q816.743 396.99 814.194 400.529Q811.644 404.068 809.165 407.655Q806.685 411.242 804.275 414.877Q801.865 418.512 799.527 422.193Q797.188 425.875 794.922 429.6Q792.655 433.326 790.461 437.096Q788.267 440.865 786.147 444.676Q784.027 448.487 781.981 452.339Q779.936 456.191 777.965 460.081Q775.995 463.972 774.1 467.9Q772.206 471.829 770.388 475.793C758.729 500.618 750.868 526.721 740.092 551.864C714.344 611.937 674.062 668.232 624.292 710.81C574.865 753.095 505.867 793.036 444.318 813.756C418.642 822.399 392.261 825.873 365.913 831.514Q363.37 832.065 360.839 832.665Q358.307 833.265 355.788 833.913Q353.268 834.561 350.761 835.257Q348.255 835.953 345.761 836.697Q343.268 837.441 340.79 838.232Q338.311 839.023 335.849 839.861Q333.386 840.699 330.939 841.585Q328.493 842.47 326.064 843.401Q323.634 844.333 321.223 845.311Q318.812 846.288 316.421 847.312Q314.029 848.336 311.657 849.405Q309.285 850.474 306.934 851.588Q304.583 852.702 302.253 853.861Q299.924 855.02 297.617 856.223Q295.31 857.426 293.027 858.673Q290.743 859.919 288.484 861.21Q286.225 862.5 283.99 863.833Q281.756 865.166 279.547 866.541Q277.339 867.917 275.157 869.334Q272.975 870.751 270.821 872.21Q268.666 873.669 266.54 875.168Q264.414 876.668 262.317 878.208Q260.22 879.747 258.152 881.327Q256.085 882.906 254.048 884.525Q252.011 886.144 250.005 887.801Q247.999 889.458 246.025 891.154Q244.051 892.849 242.11 894.582Q240.169 896.314 238.262 898.083Q236.354 899.853 234.48 901.658Q232.607 903.464 230.768 905.304Q228.929 907.145 227.126 909.021Q225.322 910.896 223.555 912.806C200.901 936.837 173.634 979.956 166.48 1012.53C166.327 1013.23 166.34 1013.24 166.283 1013.84C162.758 1016.08 155.243 1019.43 152.923 1022.73L154.633 1023.13L171.25 1023.3C194.468 1008.65 218.74 995.342 242.419 981.432L427.251 873.669C454 901.289 468.776 934.1 477.729 971.057Q434.624 996.667 391.822 1022.78C398.144 1023.24 404.437 1023.21 410.771 1023.18L410.624 1024L390.531 1024L171.423 1024L154.687 1024L86.1719 1024L0 1024L0 1022.12L0 0Z"/>
	<path fill="#8F744F" transform="scale(0.59011 0.589844)" d="M1601.72 161.333C1606.23 161.254 1610.19 161.867 1614.03 164.403Q1614.73 164.866 1615.39 165.397Q1616.04 165.928 1616.64 166.521Q1617.24 167.114 1617.77 167.764Q1618.31 168.414 1618.77 169.114Q1619.24 169.814 1619.64 170.557Q1620.04 171.299 1620.36 172.078Q1620.68 172.857 1620.92 173.664Q1621.16 174.47 1621.32 175.297Q1621.49 176.163 1621.56 177.041Q1621.64 177.92 1621.63 178.801Q1621.62 179.683 1621.52 180.559Q1621.42 181.435 1621.24 182.297Q1621.05 183.159 1620.78 183.998Q1620.51 184.837 1620.16 185.645Q1619.8 186.452 1619.37 187.221Q1618.94 187.989 1618.43 188.71C1614.98 193.562 1610.81 195.255 1605.12 196.228C1601.65 196.684 1597.52 195.484 1594.52 193.765C1590.68 191.569 1588 187.915 1586.84 183.662Q1586.72 183.225 1586.63 182.783Q1586.53 182.34 1586.46 181.894Q1586.38 181.447 1586.33 180.997Q1586.28 180.548 1586.26 180.096Q1586.23 179.644 1586.22 179.192Q1586.22 178.739 1586.24 178.287Q1586.25 177.835 1586.3 177.384Q1586.34 176.933 1586.4 176.485Q1586.46 176.037 1586.55 175.593Q1586.64 175.149 1586.74 174.709Q1586.85 174.27 1586.98 173.837Q1587.11 173.403 1587.27 172.977Q1587.42 172.551 1587.59 172.133Q1587.77 171.715 1587.96 171.307Q1588.16 170.898 1588.37 170.5Q1588.58 170.102 1588.82 169.715C1591.86 164.751 1596.24 162.612 1601.72 161.333Z"/>
	<path fill="#C9A977" transform="scale(0.59011 0.589844)" d="M1599.55 171.999C1601.24 171.668 1603.28 171.346 1605.02 171.541C1607.09 171.775 1609.54 173.776 1610.59 175.497C1611.71 177.325 1611.9 179.379 1611.11 181.37C1610.24 183.564 1608.17 184.503 1606.14 185.334C1603.42 185.834 1602.01 185.641 1599.49 184.516C1597.98 183.106 1597.01 181.966 1596.71 179.855C1596.2 176.311 1597.67 174.666 1599.55 171.999Z"/>
	<path fill="#8F744F" transform="scale(0.59011 0.589844)" d="M1630.12 130.222C1635.59 129.391 1640.24 128.612 1645.29 131.376Q1646.09 131.804 1646.84 132.31Q1647.6 132.816 1648.29 133.393Q1648.99 133.971 1649.63 134.615Q1650.27 135.259 1650.84 135.964Q1651.41 136.668 1651.91 137.426Q1652.41 138.183 1652.83 138.986Q1653.26 139.789 1653.6 140.63Q1653.94 141.471 1654.19 142.342C1655.41 146.599 1655.11 151.419 1652.86 155.289C1650.07 160.079 1645.93 162.516 1640.67 163.812C1638.57 164.962 1634.86 164.734 1632.52 164.336C1628.59 163.67 1625.08 161.081 1622.82 157.869Q1622.55 157.49 1622.3 157.097Q1622.05 156.704 1621.82 156.299Q1621.59 155.894 1621.38 155.477Q1621.17 155.061 1620.98 154.635Q1620.79 154.208 1620.62 153.773Q1620.46 153.337 1620.31 152.894Q1620.17 152.45 1620.05 152Q1619.93 151.55 1619.83 151.094Q1619.73 150.638 1619.66 150.178Q1619.58 149.718 1619.53 149.254Q1619.48 148.791 1619.45 148.326Q1619.42 147.86 1619.42 147.394Q1619.42 146.928 1619.44 146.462Q1619.46 145.996 1619.5 145.532Q1619.54 145.068 1619.61 144.607Q1619.68 144.145 1619.77 143.688C1621.07 137.153 1624.84 133.843 1630.12 130.222Z"/>
	<path fill="#C9A977" transform="scale(0.59011 0.589844)" d="M1632.64 139.999C1634.73 139.587 1637.11 139.238 1639.22 139.743C1641.25 140.229 1643.48 142.316 1644.39 144.154C1645.29 145.995 1645.09 148.05 1644.2 149.852C1643.12 152.036 1641.08 152.947 1638.92 153.746C1638.71 153.868 1638.52 154.023 1638.29 154.113C1636.46 154.85 1634.48 154.318 1632.78 153.557C1630.79 151.611 1630 149.457 1629.7 146.735C1629.37 143.885 1631 142.107 1632.64 139.999Z"/>
	<path fill="white" transform="scale(0.59011 0.589844)" d="M0 0L849.018 0C836.152 11.6893 808.82 36.4447 802.545 51.5094C765.82 49.5456 728.3 50.8019 691.504 50.8864L523.157 50.7716L47.9942 50.8132L47.9371 676.411L47.9308 869.932Q48.0166 895.398 47.8014 920.863C47.7528 929.303 46.9343 938.661 48.0127 946.975Q47.6355 961.207 47.8671 975.442C58.6296 975.39 69.7716 975.927 80.4891 975.248C89.44 976.009 98.4748 975.773 107.451 975.742C99.8026 990.705 91.041 1006.09 86.1228 1022.18L86.1719 1024L0 1024L0 1022.12L0 0Z"/>
	<path fill="white" transform="scale(0.59011 0.589844)" d="M1518.75 45.7834C1513.54 58.6146 1454.52 85.7067 1440.38 91.6872C1419 100.727 1396.71 107.36 1374.27 113.22Q1347.4 120.192 1320.15 125.459Q1292.89 130.725 1265.36 134.266C1222.98 139.754 1180.28 142.761 1137.95 148.547C1018.26 164.909 910.347 203.719 829.255 297.311Q823.588 303.913 818.191 310.737Q812.793 317.562 807.675 324.598Q802.556 331.633 797.723 338.869Q792.891 346.104 788.353 353.528Q783.815 360.952 779.579 368.552Q775.342 376.153 771.415 383.917Q767.487 391.681 763.874 399.597Q760.261 407.513 756.969 415.567C747.781 438.115 740.703 461.016 734.583 484.565C728.861 506.583 724.106 528.345 716.702 549.922Q715.001 554.826 713.174 559.684Q711.348 564.542 709.395 569.352Q707.443 574.161 705.367 578.918Q703.291 583.675 701.093 588.377Q698.894 593.079 696.575 597.722Q694.255 602.365 691.816 606.947Q689.378 611.529 686.821 616.046Q684.264 620.562 681.591 625.012Q678.919 629.461 676.131 633.839Q673.344 638.218 670.445 642.522Q667.545 646.827 664.535 651.055Q661.525 655.284 658.407 659.432Q655.288 663.581 652.063 667.648Q648.839 671.714 645.51 675.696Q642.181 679.678 638.75 683.572Q635.318 687.466 631.788 691.27Q628.257 695.074 624.629 698.785Q621.001 702.497 617.278 706.113Q613.555 709.729 609.74 713.247Q605.925 716.766 602.02 720.184Q598.115 723.602 594.122 726.919Q590.13 730.235 586.053 733.446Q581.977 736.658 577.818 739.763Q573.66 742.868 569.422 745.864Q565.184 748.86 560.871 751.745Q556.557 754.63 552.17 757.403Q547.783 760.176 543.326 762.834Q538.869 765.492 534.344 768.033Q529.819 770.575 525.231 772.999Q520.642 775.422 515.992 777.727Q511.341 780.03 506.633 782.213Q501.925 784.396 497.162 786.456C468.723 798.468 437.953 807.706 407.217 811.346C392.607 813.076 377.86 813.222 363.248 815.077C288.115 824.616 220.958 853.069 165.077 904.993Q153.802 915.533 143.497 927.024Q133.192 938.514 123.936 950.866C119.169 957.283 115.109 966.255 109.644 971.86C90.9203 969.891 70.6811 971.41 51.8077 971.523C51.8957 967.814 51.8244 964.134 51.6979 960.427C52.8134 948.925 52.2546 936.929 52.299 925.37L52.3326 859.721L52.4549 664.634L52.3191 54.9875C92.0989 53.1955 132.338 54.3285 172.163 54.3861L364.564 54.4007L643.237 54.5633C695.361 54.5959 747.561 53.9364 799.672 54.9893C785.572 73.9065 774.311 95.1057 764.736 116.623C725.551 204.681 721.567 301.534 734.533 395.916C775.577 288.783 848.973 210.424 953.804 163.661C1000.49 142.834 1048.65 130.55 1099.12 123.025C1150.05 115.431 1201.72 114.07 1253.02 110.395C1326.61 105.123 1401.31 93.7678 1470.91 68.4668C1486.22 62.9031 1506.53 56.6236 1518.75 45.7834Z"/>
	<path fill="#C9A977" transform="scale(0.59011 0.589844)" d="M106.548 169.033C104.401 168.59 101.833 168.211 99.8719 167.218C96.5569 165.539 94.3336 162.315 93.2906 158.804C92.7084 156.844 92.6881 154.502 93.8392 152.734C95.2144 150.621 97.9517 149.423 100.37 149.051C115.627 146.705 133.449 148.474 148.978 148.521L245.003 148.645L432.241 148.621C462.65 148.555 493.287 147.858 523.665 148.375C527.251 148.436 531.2 149.237 534.118 151.44C536.334 153.112 538.06 155.525 538.267 158.363C538.43 160.61 537.463 162.775 535.971 164.413C532.328 168.412 528.227 168.261 523.226 168.391L522.431 212.803C522.935 255.75 522.633 298.729 522.65 341.68C522.657 360.988 524.146 387.961 522.523 406.251C522.584 408.618 523.033 409.328 521.404 411.135C500.758 413.107 474.494 411.246 453.261 411.376C453.324 417.598 455.377 445.335 452.569 448.144C451.469 449.245 450.217 449.982 448.885 450.767C447.816 455.714 455.46 549.166 456.98 560.859L465.464 557.879C461.203 551.556 457.489 543.707 459.079 535.83C460.151 530.524 463.441 526.436 467.925 523.528C473.672 519.801 480.588 518.331 487.306 519.797C493.548 521.158 499.65 525.156 502.993 530.658C505.713 535.135 506.157 539.865 504.905 544.897C503.578 550.23 501.009 554.407 497.36 558.468C507.159 563.289 517.166 570.04 521.105 580.865C524.223 589.435 524.72 604.623 522.868 613.542L521.875 614.637C518.032 609.546 520.087 599.25 519.359 592.934C517.319 575.24 505.858 563.222 488.255 560.853C475.468 559.133 462.186 561.755 451.892 569.749Q451.347 570.174 450.822 570.623C435.818 587.634 440.323 592.327 438.921 611.228C438.765 613.332 438.671 614.037 437.121 615.407C434.543 613.744 434.935 592.178 433.675 587.7C430.567 576.655 423.217 569.289 413.468 563.82C401.525 559.158 389.343 558.65 377.39 563.837Q376.572 564.185 375.772 564.574Q374.973 564.963 374.194 565.393Q373.415 565.822 372.659 566.29Q371.903 566.758 371.172 567.264Q370.441 567.77 369.736 568.312Q369.031 568.855 368.355 569.432Q367.679 570.01 367.033 570.621Q366.386 571.232 365.772 571.875Q365.158 572.518 364.577 573.191Q363.996 573.864 363.45 574.566Q362.904 575.268 362.394 575.997Q361.885 576.726 361.413 577.479Q360.94 578.233 360.507 579.01Q360.074 579.786 359.681 580.584Q359.287 581.381 358.935 582.198Q358.582 583.015 358.272 583.848C358.018 584.528 357.776 585.215 357.532 585.898C354.574 594.185 358.318 608.646 354.333 615.328L353.109 615.286C349.093 608.93 353.679 593.576 349.794 584.483C346.972 577.818 343.643 573.577 338.523 568.587C326.479 561.911 314.164 558.041 300.323 561.87Q299.415 562.128 298.521 562.431Q297.627 562.734 296.749 563.08Q295.871 563.427 295.011 563.816Q294.152 564.206 293.312 564.637Q292.473 565.069 291.656 565.541Q290.838 566.014 290.046 566.526Q289.253 567.038 288.486 567.589Q287.72 568.14 286.981 568.728Q286.243 569.316 285.534 569.939Q284.826 570.563 284.149 571.221Q283.472 571.879 282.829 572.57Q282.185 573.26 281.577 573.982Q280.968 574.704 280.396 575.455Q279.824 576.205 279.289 576.984Q278.755 577.762 278.259 578.565Q277.764 579.369 277.309 580.196C276.275 582.056 275.429 583.982 274.585 585.932C272.033 591.824 274.801 613.335 270.7 615.37C269.322 614.151 269.256 613.715 269.103 611.855C267.839 596.475 270.456 581.323 257.356 569.672C249.423 562.618 237.536 559.445 227.104 560.243C216.278 561.072 205.891 565.498 198.82 573.897C194.708 578.781 191.523 585.127 190.196 591.377C190.163 599.018 190.481 606.616 188.699 614.096L187.658 614.65C183.852 607.672 187.007 599.418 185.514 592.11L185.165 592.134C177.26 594.63 132.823 593.298 124.821 591.065L124.394 589.633L123.311 590.062L124.975 590.98L125.746 589.371C143.099 586.998 161.155 589.541 178.646 587.89C174.532 587.772 170.049 586.408 166 585.583C167.911 581.135 169.402 577.186 170.115 572.347C169.025 561.769 171.395 546.619 171.921 535.475C173.575 500.48 176.289 465.014 176.429 430.001C176.443 426.552 175.958 425.755 173.607 423.369C172.012 419.824 172.315 415.607 172.257 411.781Q139.454 412.253 106.647 412.251L106.548 169.033Z"/>
	<path fill="white" transform="scale(0.59011 0.589844)" d="M409.712 295.256C413.522 294.462 422.554 293.253 426.061 294.409C425.752 295.866 425.647 296.037 424.619 297.117C420.594 298.838 416.624 300.541 412.787 302.661Q411.354 298.915 409.712 295.256Z"/>
	<path fill="white" transform="scale(0.59011 0.589844)" d="M225.916 310.851L232.482 316.541C230.431 321.863 228.301 326.807 225.448 331.76L224.593 331.543L225.916 310.851Z"/>
	<path fill="white" transform="scale(0.59011 0.589844)" d="M223.552 304.492C224.232 301.305 224.266 299.173 226.445 296.704C228.541 296.795 229.018 297.609 230.367 299.094C231.418 300.251 231.635 301.195 232.107 302.63C232.432 303.619 232.848 304.593 233.217 305.568C233.124 307.411 233.235 308.973 232.092 310.494C228.705 310.036 226.11 306.758 223.552 304.492Z"/>
	<path fill="white" transform="scale(0.59011 0.589844)" d="M384.815 356.816C382.774 355.527 379.674 353.899 378.343 351.882C377.154 350.08 377.398 349.219 377.925 347.323C378.294 347.113 378.664 346.901 379.047 346.717C380.788 345.88 382.953 345.376 384.829 346.055C386.792 346.766 388.126 347.32 389.025 349.243C387.835 352.111 387.255 354.85 384.815 356.816Z"/>
	<path fill="white" transform="scale(0.59011 0.589844)" d="M425.67 280.126C426.156 281.19 426.396 282.119 426.538 283.287C426.88 286.105 426.408 287.235 424.627 289.419C419.586 291.969 416.443 291.711 410.996 290.722C409.727 289.776 409.665 289.491 409.08 287.996C410.215 286.556 421.333 283.388 425.67 280.126Z"/>
	<path fill="white" transform="scale(0.59011 0.589844)" d="M309.293 310.922C311.61 314.935 317.365 317.207 318.259 321.511C317.804 324.388 316.359 326.251 314.717 328.553C312.908 330.386 310.858 332.032 308.918 333.727C309.314 326.093 309.515 318.564 309.293 310.922Z"/>
	<path fill="white" transform="scale(0.59011 0.589844)" d="M268.401 348.444L269.743 348.683Q273.63 357.99 277.211 367.419C274.867 369.833 271.88 374.073 268.626 374.568C268.774 365.88 268.481 357.137 268.401 348.444Z"/>
	<path fill="white" transform="scale(0.59011 0.589844)" d="M248.995 339.318C253.924 343.589 258.32 347.081 264.546 349.218C264.115 352.642 263.584 356.011 263.887 359.467C263.956 357.15 263.755 357.062 262.669 355.063C262.353 354.482 262.115 353.882 261.736 353.333C260.158 351.05 257.31 350.782 254.785 350.475L253.831 350.364C252.776 351.802 251.567 353.591 250.9 355.258C249.993 357.527 250.057 358.744 250.863 360.91C252.69 362.464 254.26 362.641 256.55 362.982L257.471 363.115C255.371 364.236 251.951 364.227 249.574 364.528C248.559 356.293 249.028 347.62 248.995 339.318Z"/>
	<path fill="white" transform="scale(0.59011 0.589844)" d="M201.838 293.648C205.212 295.585 208.89 300.792 211.721 303.654C209.823 305.533 207.797 307.312 205.833 309.124C204.457 310.323 203.118 311.258 201.526 312.151L199.821 311.521C199.33 310.698 198.866 309.82 198.661 308.875C197.661 304.26 199.433 297.574 201.838 293.648Z"/>
	<path fill="white" transform="scale(0.59011 0.589844)" d="M409.788 318.71C412.084 316.62 412.767 313.965 415.669 312.607L417.696 314.561C413.359 326.632 409.555 339.981 403.546 351.284C404.518 340.915 406.365 328.54 409.788 318.71Z"/>
	<path fill="white" transform="scale(0.59011 0.589844)" d="M426.351 300.636C428.062 298.57 428.587 297.42 431.261 296.735C433.36 299.163 432.931 301.611 432.709 304.658Q432.4 308.742 432.036 312.822C427.697 312.944 423.54 313.123 419.258 313.939C419.457 311.448 420.093 308.983 420.608 306.541C423.18 305.524 424.726 302.785 426.351 300.636Z"/>
	<path fill="white" transform="scale(0.59011 0.589844)" d="M256.032 385.163C259 381.982 263.892 375.582 268.371 375.026C267.544 381.027 256.378 397.104 252.422 402.97L251.42 390.447C252.934 388.678 254.403 386.827 256.032 385.163Z"/>
	<path fill="white" transform="scale(0.59011 0.589844)" d="M264.776 366.478C265.016 369.203 265.287 370.517 263.405 372.76C260.88 375.767 256.758 378.176 254.884 381.682C253.764 382.768 252.971 383.589 251.428 384.055C248.657 380.515 249.511 372.328 249.423 367.848C254.806 367.935 259.513 367.753 264.776 366.478Z"/>
	<path fill="white" transform="scale(0.59011 0.589844)" d="M250.089 321.155C251.288 321.197 252.486 321.249 253.673 321.433C256.544 321.878 259.913 326.473 261.518 328.874C265.226 334.42 266.585 337.915 265.428 344.504C260.823 342.579 255.791 340.406 252.633 336.351C248.914 331.575 249.284 326.837 250.089 321.155Z"/>
	<path fill="white" transform="scale(0.59011 0.589844)" d="M207.024 278.29C211.304 280.129 215.514 281.591 220.002 282.839C220.53 289.633 222.713 295.408 220.261 302.07L219.589 302.592C216.888 302.831 213.751 300.545 211.397 299.305C206.967 291.579 206.876 286.986 207.024 278.29Z"/>
	<path fill="white" transform="scale(0.59011 0.589844)" d="M291.66 316.66C293.822 313.838 294.067 310.269 294.634 306.86C298.395 308.194 302.134 309.617 306.051 310.424Q306.344 316.726 305.926 323.022Q305.509 329.317 304.387 335.526C298.847 329.707 293.298 324.805 291.66 316.66Z"/>
	<path fill="white" transform="scale(0.59011 0.589844)" d="M375.187 380.177C383.716 379.292 392.365 379.865 400.851 378.777C400.711 387.501 400.762 396.277 400.266 404.987C389.569 407.537 382.21 407.119 371.7 403.963L375.187 380.177Z"/>
	<path fill="white" transform="scale(0.59011 0.589844)" d="M198.134 227.967C208.722 222.041 220.47 221.098 232.3 221.511C235.619 222.93 240.766 224.286 242.655 227.431C243.159 229.983 243.077 231.676 242.428 234.192L241.525 234.525Q240.24 232.009 238.995 229.472C233.635 228.838 228.269 233.974 222.931 235.004C219.27 235.71 215.651 233.432 212.091 235.159C209.291 238.488 208.238 247.349 206.647 251.939C203.805 250.859 200.205 249.146 197.216 250.605C195.931 251.232 195.43 251.841 194.995 253.209C193.996 256.345 196.089 261.189 197.088 264.191C195.022 263.764 193.366 261.27 192.081 259.667C189.418 254.318 186.946 248.337 187.762 242.229C188.637 235.679 193.169 231.76 198.134 227.967Z"/>
	<path fill="white" transform="scale(0.59011 0.589844)" d="M306.647 523.724C312.899 523.212 318.226 523.2 323.261 527.503C327.195 530.867 329.453 535.611 329.82 540.752C330.139 545.223 329.025 549.654 325.966 553.021C323.685 555.533 321.64 556.209 318.367 556.343C312.82 556.258 307.249 556.536 301.704 556.69C299.714 554.475 297.592 552.211 296.167 549.58C293.833 545.272 292.752 540.235 294.338 535.48C296.364 529.408 301.213 526.449 306.647 523.724Z"/>
	<path fill="white" transform="scale(0.59011 0.589844)" d="M214.661 451.461C217.465 455.701 218.163 512.709 218.398 521.706C212.825 525.919 208.212 531.27 207.248 538.426C206.181 546.347 209.782 552.347 214.444 558.362C210.932 559.873 207.542 561.68 204.136 563.413C201.601 565.283 199.218 567.463 196.799 569.486C198.517 561.007 199.169 552.126 200.364 543.547C204.608 513.06 207.611 481.364 214.661 451.461Z"/>
	<path fill="white" transform="scale(0.59011 0.589844)" d="M280.639 508.817C299.25 514.729 316.01 514.231 334.999 510.678Q335.603 536.576 336.887 562.45C333.603 560.845 330.103 559.594 326.704 558.244C331.227 551.793 335.146 544.827 333.798 536.629C332.639 529.58 327.749 525.101 322.164 521.216C320.432 520.744 319.728 518.789 318.449 517.653C316.861 516.244 316.271 516.041 314.199 516.159L313.938 518.725L311.788 519.234C309.017 518.359 309.755 517.061 307.511 515.605C306.243 515.769 304.756 515.874 303.547 516.29C301.371 517.04 300.609 517.489 299.524 519.47L300.712 521.154Q299.206 522.427 297.763 523.772C293.01 528.232 289.612 533.79 289.527 540.462C289.436 547.551 292.687 552.758 297.43 557.704C292.797 559.675 288.633 561.982 284.334 564.576L280.639 508.817Z"/>
	<path fill="white" transform="scale(0.59011 0.589844)" d="M394.331 522.943Q395.697 523.01 397.057 523.159C402.283 523.74 406.553 526.09 409.771 530.285Q410.069 530.671 410.348 531.071Q410.626 531.472 410.885 531.885Q411.143 532.299 411.38 532.725Q411.617 533.151 411.833 533.589Q412.049 534.026 412.242 534.474Q412.436 534.922 412.606 535.379Q412.777 535.835 412.925 536.3Q413.073 536.765 413.197 537.237Q413.322 537.708 413.423 538.185Q413.523 538.663 413.6 539.144Q413.677 539.626 413.729 540.111Q413.782 540.596 413.81 541.083Q413.839 541.57 413.843 542.057Q413.846 542.545 413.826 543.032Q413.806 543.52 413.761 544.005Q413.716 544.491 413.647 544.974C413.088 548.707 411.159 552.052 408.06 554.248C404.533 556.748 401.972 556.126 397.901 555.547C393.735 555.801 389.553 556.321 385.396 556.715C381.837 552.821 378.441 549.014 377.367 543.69C376.488 539.33 377.026 534.745 379.607 531.035C383.171 525.91 388.429 523.989 394.331 522.943Z"/>
	<path fill="white" transform="scale(0.59011 0.589844)" d="M222.818 524.633C224.984 524.366 227.179 524.09 229.362 524.022C234.385 523.867 239.066 525.638 242.679 529.141C246.375 532.724 248.039 537.866 248.021 542.938C248.006 546.994 246.602 551.814 243.496 554.59C241.263 556.586 240.34 556.446 237.498 556.392C231.985 556.169 224.649 557.845 219.495 556.659C217 556.085 214.028 551.967 212.989 549.755C210.751 544.985 210.989 539.249 212.867 534.402C214.792 529.432 218.091 526.782 222.818 524.633Z"/>
	<path fill="white" transform="scale(0.59011 0.589844)" d="M477.368 522.803C479.374 522.652 481.404 522.514 483.41 522.733C488.657 523.308 493.301 525.723 496.604 529.878C499.973 534.115 501.307 539.63 500.648 544.966C500.215 548.465 498.694 552.665 495.779 554.836C493.448 556.572 492.766 556.814 489.875 556.422C483.598 555.993 477.229 556.332 470.942 556.449C468.989 554.301 466.751 552.052 465.343 549.498C463.108 545.443 462.426 540.228 463.894 535.806C466.043 529.335 471.519 525.634 477.368 522.803Z"/>
	<path fill="white" transform="scale(0.59011 0.589844)" d="M230.626 236.652C231.445 236.631 231.837 237.012 232.542 237.399C233.445 243.801 235.251 249.565 236.551 255.828C237.617 260.962 236.486 267.816 233.493 272.178C231.13 275.622 227.597 277.921 223.467 278.584C217.19 279.593 212.409 277.154 207.43 273.652C204.861 271.359 202.506 269.505 201.587 266.076C201.376 265.291 201.163 264.528 200.933 263.749C200.066 260.822 198.229 257.555 198.817 254.496L201.081 253.44C203.24 253.962 205.1 254.247 207.324 254.184C212.07 251.515 213.123 244.253 214.533 239.35C220.072 238.826 225.227 238.025 230.626 236.652Z"/>
	<path fill="#C9A977" transform="scale(0.59011 0.589844)" d="M227.67 253.593L229.754 254.638C231.269 257.274 230.298 260.302 229.774 263.12C228.403 262.662 227.753 262.252 226.733 261.228C225.882 258.505 226.873 256.215 227.67 253.593Z"/>
	<path fill="white" transform="scale(0.59011 0.589844)" d="M308.429 273.87C309.817 271.914 311.293 269.378 313.037 267.745C315.029 265.88 316.79 266.103 319.308 266.132C324.549 272.321 326.218 279.033 325.474 287.099C325.091 291.249 324.251 295.201 322.938 299.149C320.104 303.096 316.826 306.231 311.886 307.235C300.804 309.487 296.679 299.102 290.38 296.652C288.137 295.78 286.219 296.864 283.842 295.246C283.32 292.966 283.47 292.368 284.109 290.092C287.414 288.298 289.279 291.327 292.694 290.008L293.024 288.385C291.745 287.736 290.868 287.076 289.793 286.123C289.091 283.631 289.563 281.602 290.037 279.135C293.671 274.657 301.728 276.573 308.429 273.87Z"/>
	<path fill="white" transform="scale(0.59011 0.589844)" d="M399.407 518.371C401.591 507.818 406.606 464.374 410.194 458.667C412.897 467.392 414.232 476.868 415.898 485.847C421.13 514.043 423.947 542.904 429.998 570.887C425.777 566.737 421.638 562.77 416.146 560.32C414.424 559.637 413.125 559.21 411.949 557.734Q413.199 554.922 414.382 552.08C417.026 545.688 419.295 538.436 416.379 531.727C413.33 524.712 406.138 520.985 399.407 518.371Z"/>
	<path fill="white" transform="scale(0.59011 0.589844)" d="M404.614 370.306C410.879 373.542 417.067 376.565 423.649 379.104C426.773 380.558 429.754 381.776 433.084 382.675C435.109 383.417 437.12 384.148 439.296 384.251C443.272 384.44 445.476 382.806 448.293 380.354C448.812 387.865 449.842 396.923 448.605 404.302C438.018 407.528 414.19 412.716 403.943 407.454C403.672 407.315 403.412 407.155 403.146 407.005C405.381 395.672 404.175 381.943 404.614 370.306Z"/>
	<path fill="white" transform="scale(0.59011 0.589844)" d="M279.541 261.296C281.867 258.54 284.664 256.105 287.825 254.357C296.736 249.432 305.024 250.193 314.465 252.971C321.533 256.307 326.672 260.157 329.384 267.758C332.531 276.576 331.965 289.145 330.815 298.386C329.575 303.237 328.409 308.616 323.818 311.444C321.372 312.95 318.926 313.411 316.096 312.754C315.24 312.555 315.253 312.527 314.577 312.214L314.05 311.135C318.593 306.984 322.921 306.533 326.148 300.608C328.631 293.854 329.948 286.22 329.075 279.039C328.311 272.758 326.393 268.226 321.47 264.268C319.038 263.245 316.76 262.127 314.113 263.164C308.521 265.355 306.474 272.871 299.553 272.732C296.657 272.674 290.766 270.55 288.679 272.996C288.002 273.789 287.345 274.641 286.995 275.634C285.913 278.695 286.238 282.754 284.817 285.528C282.809 289.447 276.568 290.038 279.832 295.619C283.986 302.722 292.685 298.69 290.466 309.294C290.269 310.238 289.957 311.105 289.563 311.981C286.656 312.514 285.254 310.565 282.581 309.925C275.327 303.14 280.187 301.781 277.32 295.495C276.577 293.865 272.456 292.835 270.765 292.04C270.132 289.603 271.303 288.396 272.407 286.252C274.236 285.379 277.26 265.62 279.541 261.296Z"/>
	<path fill="white" transform="scale(0.59011 0.589844)" d="M394.275 246.302C398.494 244.075 414.252 240.358 420.08 238.32C423.151 244.748 426.468 251.007 429.707 257.348L430.736 257.473L430.813 258.855C431.813 257.689 432.831 256.588 433.91 255.496C435.404 255.622 436.169 255.495 437.3 256.722C438.611 258.145 439.356 260.596 440.082 262.386L439.463 262.795C436.956 264.417 434.933 264.787 432.001 265.072C429.599 267.469 429.552 270.223 428.785 273.489C424.44 278.282 419.529 282.098 412.813 282.292C409.485 282.388 406.437 281.463 403.343 280.349C401.63 279.04 399.798 277.695 398.331 276.111C391.24 268.457 393.844 255.795 394.275 246.302Z"/>
	<path fill="#C9A977" transform="scale(0.59011 0.589844)" d="M402.284 257.229C403.237 257.833 403.712 258.686 404.34 259.6C404.31 260.953 404.151 262.626 404.425 263.949C404.98 266.622 406.183 267.237 408.234 268.812L408.108 270.208C407.46 270.159 406.793 270.111 406.156 269.978Q405.84 269.91 405.532 269.809Q405.225 269.708 404.93 269.576Q404.635 269.444 404.355 269.282Q404.075 269.12 403.814 268.929Q403.552 268.739 403.312 268.522Q403.072 268.305 402.855 268.065Q402.639 267.825 402.449 267.563Q402.259 267.301 402.097 267.021C400.245 263.802 401.319 260.526 402.284 257.229Z"/>
	<path fill="white" transform="scale(0.59011 0.589844)" d="M376.529 454.553C385.848 456.934 395.191 457.866 404.748 458.718C402.303 478.048 398.621 497.41 395.813 516.716L395.054 517.688C388.858 518.803 383.745 520.699 378.592 524.366Q377.383 489.465 376.529 454.553Z"/>
	<path fill="white" transform="scale(0.59011 0.589844)" d="M391.25 314.701C394.149 308.656 396.872 301.579 402.644 297.741C402.593 304.125 403.084 312.903 405.648 318.814C405.638 323.787 402.281 340.236 398.925 343.505C397.453 344.938 395.243 345.379 393.267 345.137C388.89 344.6 384.439 342.17 380.578 340.166C382.063 332.052 383.246 324.176 381.813 315.953C378.012 327.616 378.936 346.601 369.801 355.167L370.225 355.994C374.153 356.617 378.938 356.821 381.986 359.568C386.063 363.433 393.6 365.354 398.565 368.376C400.794 369.732 402.157 370.779 402.77 373.363C402.333 373.819 402.233 373.986 401.738 374.306C397.898 376.787 373.416 376.814 367.779 375.635C364.648 374.98 361.86 373.628 360.18 370.757C357.479 366.14 360.017 360.116 361.357 355.387C365.996 342.74 369.291 328.506 375.506 316.603C380.244 307.529 385.217 304.602 394.586 301.63C391.48 306.515 389.02 311.232 387.089 316.705L396.084 320.32C391.788 325.292 387.344 330.147 383.86 335.74C386.464 335.739 398.814 322.843 401.437 320.395C398.252 318.182 394.686 316.49 391.25 314.701Z"/>
	<path fill="white" transform="scale(0.59011 0.589844)" d="M235.597 299.094C239.339 300.698 243.209 302.184 246.781 304.136C249.563 308.925 252.557 313.679 254.757 318.769C254.524 318.731 254.291 318.69 254.057 318.656C251.856 318.342 249.992 318.201 248.133 319.611C246.409 320.919 244.809 323.348 243.602 325.118C244.731 353.18 246.046 381.112 247.966 409.127C248.142 411.701 247.037 420.003 247.097 420.333C243.431 421.874 240.699 421.145 237.188 419.711C232.672 417.866 228.979 415.448 225.317 412.254C230.213 395.14 222.302 346.601 228.012 335.2C235.037 323.162 238.498 313.191 235.597 299.094Z"/>
	<path fill="white" transform="scale(0.59011 0.589844)" d="M414.889 459.342C418.157 456.495 438.326 454.318 444.085 452.625C445.617 463.586 453.497 557.627 451.959 564.335C445.196 569.735 443.423 573.397 434.119 573.638C429.035 535.51 422.82 496.972 414.889 459.342Z"/>
	<path fill="white" transform="scale(0.59011 0.589844)" d="M435.897 300.551L446.7 303.557C452.143 306.419 458.579 309.186 460.485 315.605C464.436 328.908 453.879 356.477 449.36 369.173C447.611 372.936 445.892 378.181 441.596 379.672C438.914 380.603 435.919 379.587 433.291 378.879L421.504 374.096C410.993 368.995 400.279 364.326 389.816 359.123C389.044 357.34 389.893 355.641 390.367 353.793C391.311 352.34 393.161 349.321 394.931 348.856C403.316 346.655 430.356 365.017 437.891 361.769C437.226 360.705 436.566 359.632 436.054 358.483C433.401 352.52 446.08 333.334 448.447 326.748C449.255 324.499 449.442 323.007 448.451 320.811L447.227 321.014C440.565 331.512 434.963 345.098 430.932 356.874L409.267 347.982C413.398 338.096 416.791 327.794 420.078 317.603C424.742 316.644 429.491 316.447 434.232 316.143C435.214 311.014 435.477 305.75 435.897 300.551Z"/>
	<path fill="white" transform="scale(0.59011 0.589844)" d="M448.526 408.363C450.881 419.909 449.559 434.243 449.58 446.129C423.416 454.74 395.323 458.216 369.619 446.245L370.382 433.476Q371.198 421.174 372.414 408.906C382.718 411.521 390.673 410.481 401.057 409.714C401.524 410.07 401.92 410.357 402.453 410.609C414.737 416.421 435.998 412.483 448.526 408.363Z"/>
	<path fill="white" transform="scale(0.59011 0.589844)" d="M267.444 416.974Q269.715 445.999 270.906 475.088C271.317 483.503 271.011 492.553 272.155 500.867C272.689 504.744 275.999 504.929 276.532 508.691C279.261 527.938 279.27 548.864 280.331 568.32C276.162 573.311 273.171 578.172 270.8 584.236C265.335 570.654 259.152 564.379 246.036 558.014C250.728 551.036 253.684 544.944 251.937 536.333Q251.684 535.045 251.263 533.802Q250.841 532.559 250.257 531.383Q249.674 530.208 248.938 529.12Q248.203 528.033 247.33 527.053Q249.043 494.014 250.28 460.954C250.619 450.631 249.206 432.368 251.934 422.957L254.16 422.196C259.491 422.388 263.192 419.833 267.444 416.974Z"/>
	<path fill="white" transform="scale(0.59011 0.589844)" d="M339.681 411.318L368.373 411.435C367.69 416.415 366.882 421.378 366.968 426.419C365.853 433.645 365.597 441.045 365.135 448.34L372.207 452.272C372.885 474.975 373.871 497.758 373.925 520.468C373.942 527.883 371.463 538.023 372.976 545.014C373.986 549.686 377.518 554.256 380.38 557.947C370.859 561.986 364.034 566.31 358.122 575.15C356.446 577.655 355.198 580.856 353.102 582.971C350.902 574.99 347.776 570.624 340.776 566.21C338.802 543.713 340.148 521.721 340.687 499.298C341.358 471.369 341.412 439.088 339.681 411.318Z"/>
	<path fill="white" transform="scale(0.59011 0.589844)" d="M179.072 306.987C184.387 304.126 189.756 301.761 195.35 299.503C195.158 305.45 193.752 313.937 197.961 318.771C202.234 323.679 212.219 327.7 218.042 330.917C216.996 326.612 205.588 320.139 202.09 316.998C204.344 314.841 207.326 311.217 210.5 310.838C211.676 311.772 212.185 312.375 212.881 313.704L217.528 323.412C220.161 326.735 221.137 330.389 222.14 334.453C225.808 344.158 220.357 397.194 222.959 412.657C216.515 420.321 201.812 423.149 192.155 424.216C188.748 424.172 185.127 424.229 181.793 423.452C178.87 422.77 177.081 421.381 175.471 418.837C176.803 409.552 182.686 340.53 180.45 336.631L179.187 336.551C177.128 339.289 177.145 343.749 177.024 347.045C176.411 351.393 175.883 355.711 175.552 360.089L174.569 360.635C174.369 360.519 174.171 360.399 173.968 360.286C172.029 359.206 170.205 358.47 167.958 359.076C167.102 359.306 166.304 359.783 165.559 360.251L165.71 361.617C169.081 364.129 172.759 365.477 175.948 368.302C173.927 374.051 174.295 381.989 173.904 388.056C166.137 381.536 158.998 374.136 152.354 366.482C152.009 364.492 151.717 362.482 151.861 360.458C152.999 344.497 167.313 317.39 179.072 306.987Z"/>
	<path fill="white" transform="scale(0.59011 0.589844)" d="M224.291 417.263C229.095 420.129 233.644 422.458 238.903 424.413C233.457 426.217 220.111 427.56 216.821 431.3C222.477 432.829 234.056 431.779 239.055 428.718C241.326 427.327 244.02 424.113 246.524 424.527C249.8 431.627 243.549 507.776 243.464 522.999C236.189 519.929 230.297 519.693 222.569 519.863C222.081 508.294 219.834 438.714 217.781 433.605L216.578 433.686C205.709 447.773 196.353 554.749 190.584 579.559C185.962 579.515 181.127 579.757 176.551 579.083C175.706 578.627 175.174 578.2 174.563 577.471C173.48 576.179 173.583 573.735 173.645 572.073C174.574 547.225 176.73 522.275 177.813 497.392C178.809 474.503 178.673 451.366 180.617 428.549C182.875 427.203 186.104 427.653 188.734 427.574C188.901 427.619 189.066 427.676 189.236 427.708C200.265 429.823 215.475 423.507 224.291 417.263Z"/>
	<path fill="white" transform="scale(0.59011 0.589844)" d="M287.654 321.824C291.917 327.234 297.072 332.248 301.696 337.379C303.53 339.183 303.886 340.018 306.553 340.165C313.778 335.699 319.2 329.872 322.606 322.01C330.825 326.605 336.455 332.428 339.078 341.688C341.958 351.853 339.613 362.112 334.543 371.159C334.093 371.961 333.609 372.631 333.057 373.365L331.543 373.495L330.696 372.587C330.301 365.738 328.007 351.224 322.993 346.375L322.111 347.014C321.475 355.861 325.747 366.285 327.826 374.851C330.779 387.019 333.829 399.329 335.262 411.782C338.724 441.882 336.856 474.94 336.816 505.376C315.382 510.329 296.803 510.926 276.281 502.097C274.81 472.458 272.177 442.435 271.812 412.811L276.189 408.159C283.478 402.112 291.979 392.238 296.67 383.965C298.978 379.894 301.949 373.518 300.638 368.767C298.266 370.042 294.946 379.1 293.093 381.973C287.659 390.399 280.125 397.74 273.521 405.27C267.867 410.349 262.144 416.132 255.204 419.422C254.598 418.096 254.102 416.739 253.941 415.28C252.696 403.99 273.915 376.819 281.258 367.682C278.851 361.189 275.972 354.87 273.651 348.343C271.733 342.95 269.935 336.811 272.638 331.352C275.587 325.396 281.818 323.698 287.654 321.824Z"/>
	<path fill="white" transform="scale(0.59011 0.589844)" d="M110.292 168.214C246.518 166.452 382.976 167.759 519.218 168.177Q518.947 206.446 519.215 244.715C518.613 296.79 518.614 349.035 519.079 401.112C519.115 403.302 518.994 405.014 518.295 407.098C511.605 408.828 464.524 407.349 453.024 407.386C452.589 396.188 450.811 383.068 453.032 372.076C454.585 364.386 457.861 356.732 460.136 349.202C463.471 338.168 468.363 321.914 462.386 311.188C458.453 304.13 451.382 301.998 444.15 299.851L437.94 297.605C435.577 294.572 431.796 291.745 430.127 288.361C427.966 283.984 430.775 277.635 432.03 273.225C433.644 269.121 438.798 268.917 441.865 265.145Q442.478 260.251 442.679 255.323C445.128 247.938 447.7 239.185 444.261 231.696C441.802 226.344 436.142 223.17 430.835 221.238C421.093 217.69 400.224 213.537 390.668 218.213C386.832 220.09 383.505 223.495 382.21 227.618C380.445 233.24 381.186 238.241 383.825 243.376C385.937 244.975 387.417 245.914 390.056 246.512C394.05 253.298 383.273 273.218 399.676 282.291C402.362 283.907 404.659 284.706 406.154 287.502C405.11 291.025 399.882 294.699 396.748 296.438C391.627 299.278 385.251 300.122 380.53 303.575C368.758 312.185 362.474 339.572 358.101 353.419C356.215 359.46 352.962 367.639 355.984 373.775C357.33 376.51 359.907 378.003 362.737 378.782C365.309 379.491 368.206 379.592 370.853 379.422Q369.77 391.657 368.096 403.826L367.438 407.092C357.958 406.882 348.419 407.133 338.934 407.161C337.608 398.887 334.921 390.995 334.213 382.623C333.91 379.032 335.459 377.116 337.484 374.342C340.908 370.148 343.139 361.935 343.84 356.636C345.549 343.713 341.083 329.356 330.201 321.55C327.846 319.86 323.616 318.768 321.947 316.567C329.017 312.485 331.411 309.803 334.105 302.094C334.043 292.197 340.988 289.453 340.575 281.87C340.421 279.052 339.12 278.119 337.282 276.237C327.552 266.28 336.144 259.587 317.468 249.918C307.577 246.664 296.709 245.471 287.069 250.313C283.275 252.22 280.53 254.734 277.837 257.97C272.144 265.546 272.767 280.472 269.894 283.572C267.912 285.412 265.983 286.941 265.018 289.544C265.384 292.076 265.674 292.188 267.765 293.81C277.419 301.298 270.698 304.713 280.344 312.658C283.188 314.057 286.072 315.658 289.066 316.698C278.348 322.011 275.052 321.614 266.932 331.378C260.852 322.204 256.783 308.329 248.731 300.972C242.13 294.941 230.515 295.585 224.258 288.432C223.845 287.167 223.265 286.285 223.706 284.976C224.86 281.552 229.066 280.485 231.968 279.051C245.02 272.603 239.076 252.292 242.936 240.819C244.77 239.354 246.372 235.953 246.931 233.693C247.66 230.747 247.097 228.051 245.496 225.517C242.404 220.622 237.937 218.863 232.519 217.646C222.304 214.789 205.907 218.753 196.672 223.827Q196.104 224.142 195.55 224.481C188.951 229.438 185.064 234.046 183.924 242.466C183.019 249.152 185.376 256.169 189.234 261.59C192.554 267.057 198.236 270.697 202.898 275.003Q203.407 281.758 204.067 288.499C195.07 295.277 183.445 298.267 175.009 305.241C163.75 312.701 151.23 342.466 148.59 355.614C147.501 361.034 147.218 365.583 150.378 370.389C150.481 370.545 150.589 370.698 150.694 370.853C156.631 378.397 165.321 387.012 173.551 391.989C173.449 397.393 172.835 402.725 172.254 408.093L110.532 408.016L110.292 168.214Z"/>
</svg>
